<?xml version="1.0" encoding="iso-8859-1"?>
<!-- Uploaded to: SVG Repo, www.svgrepo.com, Generator: SVG Repo Mixer Tools -->
<!DOCTYPE svg PUBLIC "-//W3C//DTD SVG 1.1//EN" "http://www.w3.org/Graphics/SVG/1.1/DTD/svg11.dtd">
<svg fill="#000000" height="800px" width="800px" version="1.1" id="Capa_1" xmlns="http://www.w3.org/2000/svg" xmlns:xlink="http://www.w3.org/1999/xlink" 
	 viewBox="0 0 212.587 212.587" xml:space="preserve">
<path d="M62.131,61.884c0.732-4.268,1.61-8.9,2.639-13.557C70.211,23.693,76.759,12.22,85.377,12.22
	c11.257,0,15.469,6.476,18.256,10.761c0.673,1.035,1.8,2.767,2.287,2.944c0.126,0,0.25,0.005,0.371,0.013
	c0.108-0.007,0.217-0.011,0.325-0.011c0.539-0.18,1.666-1.911,2.339-2.946c2.787-4.285,6.999-10.761,18.256-10.761
	c8.617,0,15.165,11.474,20.606,36.107c1.029,4.657,1.907,9.289,2.639,13.557H62.131z M212.534,50.255
	c-0.059,0.358-6.279,35.905-40.955,35.905h-17.96c0.475,9.75,0.156,33.132-12.168,47.638c-8.461,9.958-17.75,15.963-24.464,19.371
	c0,0.01,0.001,0.019,0.001,0.028c0,4.383-2.706,8.142-6.533,9.707l-0.161,33.483c-0.011,2.202-1.8,3.98-4,3.98
	c-0.006,0-0.013,0-0.02,0c-2.209-0.011-3.991-1.811-3.98-4.02l0.161-33.478c-3.779-1.587-6.441-5.324-6.441-9.673
	c0-0.011,0.001-0.022,0.002-0.033c-6.715-3.407-16-9.403-24.465-19.366C59.228,119.292,58.909,95.91,59.383,86.16H41.008
	c-34.676,0-40.896-35.547-40.955-35.905c-0.357-2.181,1.121-4.237,3.301-4.594c2.176-0.362,4.232,1.118,4.593,3.295
	c0.209,1.233,5.265,29.204,33.062,29.204H59.72c0.258-2.065,0.634-4.913,1.133-8.276h90.881c0.5,3.363,0.876,6.211,1.133,8.276
	h18.711c27.819,0,32.861-28.015,33.062-29.207c0.367-2.175,2.429-3.648,4.601-3.286C211.417,46.028,212.89,48.078,212.534,50.255z
	 M145.597,86.16h-35.563h-7.482H67.409c-0.421,8.442-0.331,30.016,10.24,42.458c7.38,8.687,15.546,14.041,21.484,17.128
	c1.896-1.874,4.498-3.035,7.368-3.035s5.473,1.161,7.368,3.035c5.937-3.086,14.103-8.44,21.484-17.128
	C145.952,116.143,146.026,94.595,145.597,86.16z"/>
</svg>